# xmcd
#
# Track frame offsets: 
#        150
#        25693
#        42015
#        72966
#        89917
#        111621
#        126108
#        142682
#        162239
#
# Disc length: 2750 seconds
#
# Revision: 0
# Processed by: cddbd v1.5.2PL0 Copyright (c) Steve Scherf et al.
# Submitted via: ExactAudioCopy v0.95b3
#
DISCID=780abc09
DTITLE=Jimi Hendrix  - Moonbeams and Fairytales - Disc 11
DYEAR=1900
DGENRE=
TTITLE0=Killing Floor
TTITLE1=Foxy Lady
TTITLE2=Like A Rolling Stone
TTITLE3=Rock Me Baby
TTITLE4=Hey Joe
TTITLE5=Can You See Me
TTITLE6=The Wind Cries Mary
TTITLE7=Purple Haze
TTITLE8=Wild Thing
EXTD=
EXTT0=
EXTT1=
EXTT2=
EXTT3=
EXTT4=
EXTT5=
EXTT6=
EXTT7=
EXTT8=
PLAYORDER=
